<svg width="50" height="50" viewBox="0 0 50 50" fill="none" xmlns="http://www.w3.org/2000/svg">
<path d="M46.1648 39.0625H2.34375C1.9125 39.0625 1.5625 39.4125 1.5625 39.8438V42.9688C1.5625 45.9844 4.01562 48.4375 7.03125 48.4375H30.4688C33.4844 48.4375 35.9375 45.9844 35.9375 42.9688V40.625H38.3828C38.7078 41.9969 39.8602 43.0445 41.3266 43.1781L45.9594 43.5992C46.0273 43.6055 46.0961 43.6086 46.1641 43.6086C46.7281 43.6086 47.2773 43.3977 47.6969 43.0148C48.1672 42.5844 48.4375 41.9727 48.4375 41.3352C48.4375 40.082 47.418 39.0625 46.1648 39.0625ZM34.375 42.9688C34.375 45.1227 32.6227 46.875 30.4688 46.875H7.03125C4.87734 46.875 3.125 45.1227 3.125 42.9688V40.625H34.375V42.9688ZM46.6437 41.8602C46.4953 41.9961 46.3039 42.0633 46.1008 42.0422L41.468 41.6211C40.8203 41.5625 40.2852 41.1719 40.0211 40.625H46.1648C46.5563 40.625 46.875 40.9438 46.875 41.3352C46.875 41.5375 46.793 41.7242 46.6437 41.8602Z" fill="black"/>
<path d="M8.59375 12.5C9.2125 12.5 9.74297 12.4062 10.1945 12.2586L9.41484 14.5961C9.33516 14.8344 9.37578 15.0961 9.52266 15.3C9.66953 15.5047 9.90547 15.625 10.1562 15.625H17.9688C18.2195 15.625 18.4555 15.5047 18.6023 15.3C18.7492 15.0961 18.7891 14.8344 18.7102 14.5961L17.9305 12.2586C18.382 12.4062 18.9125 12.5 19.5312 12.5C21.4102 12.5 23.4375 10.7078 23.4375 7.8125C23.4375 4.80234 20.5039 1.5625 14.0625 1.5625C7.62109 1.5625 4.6875 4.80234 4.6875 7.8125C4.6875 10.7078 6.71484 12.5 8.59375 12.5ZM14.0625 3.125C20.2422 3.125 21.875 6.19141 21.875 7.8125C21.875 9.74297 20.6586 10.9375 19.5312 10.9375C17.7359 10.9375 17.125 9.84297 17.1055 9.80703C16.9219 9.43984 16.4867 9.27734 16.1078 9.43438C15.7289 9.59141 15.5359 10.0141 15.6656 10.4031L16.8852 14.0625H11.2398L12.4602 10.4031C12.5883 10.0188 12.3977 9.60547 12.0258 9.44453C11.6539 9.28281 11.2172 9.43984 11.025 9.79609C11 9.84297 10.3891 10.9375 8.59375 10.9375C7.46641 10.9375 6.25 9.74297 6.25 7.8125C6.25 6.19141 7.88281 3.125 14.0625 3.125Z" fill="black"/>
<path d="M25.4578 23.5149L22.143 26.8305C20.9625 28.011 20.3125 29.5805 20.3125 31.25C20.3125 32.9196 20.9625 34.4891 22.143 35.6696C23.3234 36.8501 24.893 37.5 26.5625 37.5C28.232 37.5 29.8016 36.8501 30.982 35.6696L38.7156 27.936C41.7617 24.8899 41.7617 19.9336 38.7156 16.8875C35.6695 13.8415 30.7125 13.8422 27.6672 16.8875C25.9211 18.6329 25.1117 21.0836 25.4578 23.5149ZM27.0625 23.6313C26.6563 21.5774 27.2953 19.4688 28.7719 17.9922C31.2094 15.5555 35.1734 15.5555 37.6109 17.9922C40.0477 20.429 40.0477 24.3946 37.6109 26.8313L29.8774 34.5649C28.9914 35.4501 27.8148 35.9375 26.5625 35.9375C25.3102 35.9375 24.1336 35.4501 23.2477 34.5649C22.3617 33.6797 21.875 32.5024 21.875 31.25C21.875 29.9977 22.3625 28.8211 23.2477 27.9352L26.8477 24.3344C27.0328 24.1508 27.1133 23.8868 27.0625 23.6313Z" fill="black"/>
<path d="M33.7437 23.0976C34.3695 23.0976 34.9586 22.8539 35.4008 22.4117C35.8437 21.9687 36.0875 21.3804 36.0875 20.7539C36.0875 20.1273 35.8437 19.539 35.4015 19.0969C34.9593 18.6547 35.4015 19.0969 35.4015 19.0969C34.5164 18.2117 32.9726 18.2117 32.0875 19.0969C31.6445 19.5398 31.4008 20.1281 31.4008 20.7547C31.4008 21.3812 31.6445 21.9695 32.0867 22.4117C32.5297 22.8539 33.1179 23.0976 33.7437 23.0976ZM33.1922 20.2015C33.339 20.0539 33.5351 19.9726 33.7445 19.9726C33.9539 19.9726 34.1492 20.0539 34.2969 20.2015C34.4445 20.3484 34.5258 20.5445 34.5258 20.7539C34.5258 20.9633 34.4445 21.1586 34.2969 21.3062C34.0023 21.6015 33.4875 21.6015 33.1922 21.3062C33.0445 21.1593 32.9633 20.9633 32.9633 20.7539C32.9633 20.5445 33.0437 20.3492 33.1922 20.2015Z" fill="black"/>
<path d="M35.9375 3.125V1.5625C31.6297 1.5625 28.125 5.06719 28.125 9.375H29.6875C29.6875 5.92891 32.4914 3.125 35.9375 3.125Z" fill="black"/>
<path d="M5.46875 17.9688H7.03125C7.03125 15.3836 4.92891 13.2812 2.34375 13.2812V14.8438C4.06719 14.8438 5.46875 16.2453 5.46875 17.9688Z" fill="black"/>
<path d="M20.3125 20.3125H21.875C21.875 18.1586 23.6273 16.4062 25.7812 16.4062V14.8438C22.7656 14.8438 20.3125 17.2969 20.3125 20.3125Z" fill="black"/>
<path d="M37.5 1.5625H39.0625V3.125H37.5V1.5625Z" fill="black"/>
<path d="M32.8125 35.9375H34.375V37.5H32.8125V35.9375Z" fill="black"/>
<path d="M2.70624 34.2797C3.44374 35.018 4.42499 35.4243 5.46874 35.4243C6.51249 35.4243 7.49296 35.018 8.23124 34.2797C8.38983 34.1211 8.53437 33.943 8.6703 33.7415C9.43046 33.6571 10.1328 33.3438 10.7203 32.854L13.7047 36.4375C13.8453 36.6063 14.05 36.7079 14.2695 36.718C14.2812 36.7188 14.293 36.7188 14.3047 36.7188C14.5117 36.7188 14.7101 36.6368 14.857 36.4899L19.2789 32.068C19.4344 31.9125 19.5172 31.6993 19.507 31.4805C19.4969 31.261 19.3953 31.0563 19.2273 30.9157L15.6461 27.9274C16.1344 27.3399 16.4476 26.6383 16.5305 25.8805C16.7328 25.7454 16.9109 25.6 17.0695 25.4415C18.593 23.9188 18.593 21.4399 17.0695 19.9172C16.332 19.179 15.3508 18.7727 14.307 18.7727C13.507 18.7727 12.743 19.0118 12.0976 19.4563C11.4523 19.0118 10.6883 18.7727 9.88749 18.7727C8.84452 18.7727 7.86327 19.179 7.12577 19.9165C6.96796 20.0743 6.82265 20.2524 6.68671 20.4555C5.80858 20.5524 4.99608 20.9407 4.36327 21.5743C3.72968 22.2079 3.3414 23.0204 3.24452 23.8977C3.0414 24.0329 2.86327 24.1782 2.70546 24.3368C1.35468 25.6868 1.20233 27.7875 2.24608 29.3086C1.20312 30.829 1.35624 32.9297 2.70624 34.2797ZM14.357 34.7805L11.7148 31.6071C12.0609 30.9063 12.1969 30.1086 12.0859 29.3204L12.1094 29.2969C12.9008 29.4086 13.7 29.2711 14.4016 28.9235L17.5703 31.568L14.357 34.7805ZM3.81093 28.7563C2.89765 27.8422 2.89765 26.3555 3.81093 25.4415C3.95468 25.2977 4.1328 25.1711 4.37108 25.0438C4.62655 24.9071 4.78593 24.6399 4.78358 24.35C4.78046 23.718 5.02343 23.125 5.46874 22.679C5.91093 22.2375 6.49843 21.9946 7.12655 21.9946H7.14452C7.4328 21.9946 7.69765 21.836 7.83358 21.5821C7.96093 21.3438 8.08749 21.1665 8.23124 21.0227C9.11718 20.1368 10.6601 20.1368 11.5461 21.0227C11.8391 21.3157 12.3578 21.3157 12.6508 21.0227C13.5367 20.1368 15.0797 20.1368 15.9656 21.0227C16.8789 21.9368 16.8789 23.4235 15.9656 24.3375C15.8211 24.4821 15.6437 24.6079 15.407 24.7344C15.1508 24.8711 14.9914 25.1383 14.993 25.429C14.9969 26.0618 14.7539 26.6547 14.3086 27.1C13.718 27.6899 12.8719 27.911 12.0523 27.6954C11.782 27.6243 11.4969 27.7016 11.3008 27.8977L10.6875 28.5102C10.4906 28.7071 10.4133 28.9938 10.4844 29.2625C10.7016 30.0852 10.4789 30.9282 9.88905 31.5188C9.44687 31.9602 8.85937 32.2032 8.23124 32.2032C8.22499 32.2032 8.21874 32.2024 8.21327 32.2032C7.92499 32.2032 7.66015 32.3618 7.52421 32.6165C7.39765 32.8532 7.27187 33.0313 7.12733 33.175C6.21327 34.0891 4.72655 34.0891 3.81249 33.175C2.89921 32.261 2.89921 30.7743 3.81249 29.8602C4.1164 29.5555 4.1164 29.061 3.81093 28.7563Z" fill="black"/>
</svg>
